<svg xmlns="http://www.w3.org/2000/svg" fill="none" viewBox="0 0 363 51" height="51" width="363">
<path fill="black" d="M40.61 24.4499C43.29 25.3599 45.4 26.8299 46.92 28.8499C48.44 30.8799 49.21 33.2499 49.21 35.9799C49.21 40.1199 47.48 43.4399 44.02 45.9499C40.56 48.4499 35.92 49.6999 30.1 49.6999H0V1.91992H28.67C34.27 1.91992 38.71 3.07992 42.01 5.39992C45.31 7.71992 46.96 10.8399 46.96 14.7499C46.96 17.0299 46.4 19.0099 45.29 20.6899C44.17 22.3699 42.62 23.6299 40.61 24.4399V24.4499ZM34.74 16.0499C34.74 14.6399 34.1 13.5599 32.83 12.8099C31.56 12.0599 29.8 11.6799 27.57 11.6799H12.21V20.4199H27.84C32.44 20.4199 34.73 18.9599 34.73 16.0499H34.74ZM27.85 39.8799C33.31 39.8799 36.04 38.2699 36.04 35.0299C36.04 31.7899 33.31 30.1799 27.85 30.1799H12.22V39.8699H27.85V39.8799Z"></path>
<path fill="black" d="M101.23 49.7099L96.86 40.8999H69.62L65.32 49.7099H52.28L77.13 1.91992H89.42L114.27 49.6999H101.23V49.7099ZM74.54 30.8699H91.95L83.28 13.1899L74.54 30.8699Z"></path>
<path fill="black" d="M146.46 20.8998H171.99V41.0998C169.35 44.1498 165.87 46.5398 161.55 48.2698C157.23 49.9998 152.2 50.8598 146.46 50.8598C136.9 50.8598 129.33 48.5198 123.73 43.8298C118.13 39.1398 115.33 33.1398 115.33 25.8098C115.33 18.4798 118.09 12.5298 123.62 7.81977C129.15 3.10977 136.76 0.759766 146.45 0.759766C156.14 0.759766 164.06 3.18977 169.79 8.05977L162.55 14.9498C158.91 12.2198 153.79 10.8498 147.19 10.8498C141 10.8498 136.17 12.1198 132.68 14.6698C129.2 17.2198 127.46 20.8998 127.46 25.7298C127.46 30.5598 129.15 34.2098 132.55 36.8198C135.94 39.4398 140.68 40.7398 146.78 40.7398C152.33 40.7398 156.86 39.5598 160.36 37.1898V30.0898H146.44V20.8698L146.46 20.8998Z"></path>
<path fill="black" d="M195.2 40.1499H223.66V49.7099H182.98V1.91992H195.2V40.1499Z"></path>
<path fill="black" d="M244.09 1.91992V49.6999H231.87V1.91992H244.09Z"></path>
<path fill="black" d="M362.21 11.8899H332.72V20.2199H359.75V30.1899H332.72V39.6799H362.21V49.7099H320.5V1.91992H362.21V11.8899Z"></path>
<path fill="black" d="M295.24 3.6C291.45 1.31 287 0 282.25 0C277.5 0 273.05 1.31 269.26 3.6C261.94 8.01 257.04 16.04 257.04 25.21V49.71H269.26V25.21C269.26 18.03 275.08 12.22 282.25 12.22C289.42 12.22 295.06 17.86 295.24 24.87C295.24 24.98 295.24 25.09 295.24 25.21C295.24 25.33 295.24 25.43 295.24 25.55V49.71H307.46V25.21C307.46 16.04 302.56 8.01 295.24 3.6Z"></path>
<path fill="black" d="M271.55 47.6099H254.61V49.7099H271.55V47.6099Z"></path>
<path fill="black" d="M309.8 47.6099H292.86V49.7099H309.8V47.6099Z"></path>
</svg>
