<svg width="122" height="42" viewBox="0 0 122 42" fill="none" xmlns="http://www.w3.org/2000/svg">
<path id="Union" fill-rule="evenodd" clip-rule="evenodd" d="M61.247 1.25956L48.2124 22.1464L65.016 17.7491L76.0876 0.00321186C72.6065 0.0293858 65.2673 0.0660293 63.7597 0.00321186C62.2521 -0.0596056 61.4564 0.814604 61.247 1.25956ZM45.3856 26.5436L35.8059 41.9339H48.9191C49.6101 41.9339 50.0969 41.4104 50.2539 41.1486L60.8544 24.345L45.3856 26.5436ZM73.8105 22.6051L61.8752 41.843L61.7966 41.9215C65.5395 41.9477 73.2765 42 74.2816 42C75.2867 42 76.1138 41.2671 76.4017 40.9007L84.4109 28.2587H96.1107C99.9844 28.3372 108.784 27.7561 112.993 24.8037C118.254 21.1132 122.18 15.4596 121.159 7.76449C120.342 1.60839 114.851 0.0693658 112.208 0.0693695C104.957 0.0170216 90.1587 -0.0562654 88.9652 0.0693695C87.7717 0.195004 87.2115 0.959283 87.0807 1.32572L79.0714 14.1248C84.0445 12.8684 94.9485 10.0574 98.7804 8.86382C102.989 7.55281 104.955 7.93955 105.53 8.05261C105.609 8.06821 105.662 8.0786 105.69 8.0786C105.926 8.0786 109.616 9.33495 109.302 13.261C109.051 16.4019 105.9 17.92 104.355 18.2864L73.8105 22.6051ZM0 0H12.5635L16.9607 30.3879L35.0207 1.57044C35.2825 1.12548 36.0572 0.188452 37.0623 0H50.1754L33.8429 25.9122L20.4942 29.3672L19.0808 30.1524L32.2725 28.2678L24.1847 41.2239C24.0277 41.4595 23.6194 41.9306 23.2424 41.9306H6.1247L0 0Z" fill="#EC1C24"/>
</svg>
