<svg version="1.1" id="Layer_1" xmlns="http://www.w3.org/2000/svg" xmlns:xlink="http://www.w3.org/1999/xlink" x="0px" y="0px"
	 width="100%" viewBox="0 0 989 695" enable-background="new 0 0 989 695" xml:space="preserve">
<path fill="#FEFEFE" opacity="1.000000" stroke="none" 
	d="
M912.000000,696.000000 
	C608.000061,696.000000 304.500183,696.000000 1.000204,696.000000 
	C1.000136,464.333496 1.000136,232.666992 1.000068,1.000359 
	C330.666412,1.000239 660.332825,1.000239 989.999390,1.000120 
	C989.999634,232.666336 989.999634,464.332672 989.999817,695.999512 
	C964.166687,696.000000 938.333313,696.000000 912.000000,696.000000 
M758.332825,393.760437 
	C758.539246,393.478058 758.745667,393.195679 758.988403,392.995514 
	C758.988403,392.995514 758.920410,392.936646 759.735168,392.982422 
	C763.698364,393.275391 764.311157,390.931213 763.997192,387.224854 
	C764.347534,386.824524 764.697937,386.424225 765.859741,386.038971 
	C766.670288,387.543549 767.480835,389.048126 768.266907,391.315430 
	C767.782654,393.007538 767.298401,394.699615 766.768799,396.550110 
	C775.426941,397.186188 776.897217,396.193817 778.514648,388.959045 
	C779.622498,384.003265 780.542358,379.005463 781.719849,373.165558 
	C782.894470,374.274323 783.855835,374.812866 784.264832,375.628387 
	C786.706787,380.498474 789.149780,385.376099 791.336121,390.363586 
	C792.961487,394.071320 795.554138,396.242218 799.532104,396.781158 
	C802.610046,397.198151 804.586365,396.923828 805.320862,392.864594 
	C807.419739,381.264893 810.198669,369.788940 812.639526,358.249420 
	C812.892883,357.051727 812.673645,355.754120 812.673645,354.541321 
	C805.238220,353.680573 803.800781,354.640778 802.313049,361.389038 
	C801.454590,365.282745 800.775635,369.218109 799.830688,373.089539 
	C799.522095,374.353699 798.628784,375.475098 797.493774,377.626831 
	C795.974487,375.115845 794.957520,373.671295 794.180847,372.107452 
	C791.740784,367.194641 789.200317,362.317261 787.074646,357.267914 
	C785.693726,353.987701 783.549255,353.472687 780.757568,354.719727 
	C778.997131,355.506042 777.494812,356.870209 775.186646,358.112915 
	C773.578125,361.217255 770.476990,363.995239 773.053406,368.680847 
	C772.970215,369.121094 772.886963,369.561371 772.109558,370.367493 
	C771.128601,370.745941 770.147705,371.124359 769.044250,370.811523 
	C769.021790,369.877838 768.999329,368.944122 769.494080,367.594177 
	C768.722534,366.052917 767.950928,364.511658 766.952332,362.631104 
	C766.952332,362.631104 766.899719,362.226257 766.818359,361.687500 
	C766.550720,361.455688 766.283081,361.223877 766.000000,361.000000 
	C766.000000,361.000000 766.010986,360.985077 766.015869,360.250549 
	C765.027344,359.489258 764.038818,358.727966 763.007080,358.003632 
	C763.007080,358.003632 763.023071,357.949097 762.761902,357.488800 
	C762.445862,357.354340 762.129883,357.219910 761.276917,356.993622 
	C760.837463,356.692017 760.397949,356.390411 759.841125,355.323059 
	C754.965637,353.088989 750.071289,351.417450 744.348328,354.971924 
	C743.900391,354.986389 743.452393,355.000854 742.557312,354.484375 
	C740.098572,353.519318 738.480347,354.147217 737.652405,357.105835 
	C737.652405,357.105835 737.263733,357.137482 736.506775,357.048950 
	C735.698303,357.736908 734.889832,358.424866 734.010071,359.008423 
	C734.010071,359.008423 734.105042,359.091919 733.256226,359.023499 
	C731.299194,358.999817 729.342163,358.976135 727.070007,358.301392 
	C725.990723,357.548126 725.011230,356.526520 723.817017,356.082092 
	C707.505981,350.012177 685.287659,358.783539 685.411255,382.624603 
	C685.451050,390.307220 689.805237,395.330353 697.191162,397.491577 
	C703.656555,399.383392 710.102112,398.898468 716.227295,396.334229 
	C717.897339,395.635040 718.909668,393.364990 720.223877,391.815857 
	C718.213013,390.865112 716.262268,389.305176 714.177856,389.099274 
	C710.602905,388.746185 706.894897,389.681396 703.331726,389.281860 
	C696.589050,388.525787 694.212158,384.916748 695.369263,378.207855 
	C697.253601,367.282654 705.723206,361.453552 716.817810,363.292786 
	C719.397339,363.720367 722.058899,363.653412 725.432678,363.993500 
	C726.004944,364.751312 726.577271,365.509094 727.031616,366.793304 
	C726.710876,367.208374 726.390076,367.623444 725.360168,368.127655 
	C724.573975,370.751862 723.787720,373.376038 723.033569,376.672882 
	C722.962585,377.115417 722.891541,377.557922 722.433594,378.296143 
	C722.507324,378.857208 722.581055,379.418243 722.764587,380.735046 
	C722.731506,381.496216 722.698486,382.257385 722.311768,383.354919 
	C722.482056,383.902466 722.652344,384.450012 722.977478,385.644073 
	C723.020874,386.084564 723.064270,386.525055 722.598145,387.327118 
	C723.371460,388.556427 724.144775,389.785736 725.353638,391.454071 
	C726.271423,392.551819 727.189209,393.649536 728.323059,395.337646 
	C728.697021,395.489655 729.070984,395.641632 729.763611,395.820984 
	C729.763611,395.820984 729.998535,396.038086 730.137817,396.756500 
	C735.976624,401.186127 742.710022,400.236755 749.239563,399.564209 
	C750.931763,399.389923 752.423157,397.265839 754.248169,395.815186 
	C754.248169,395.815186 754.574280,395.779449 755.367310,395.893646 
	C756.186768,395.191742 757.006226,394.489838 757.960632,393.900543 
	C757.960632,393.900543 757.796509,393.837708 758.332825,393.760437 
M668.551147,449.418335 
	C669.775269,448.924255 671.415955,448.772125 672.151123,447.876617 
	C675.252563,444.098816 678.847839,444.177917 682.218079,448.020844 
	C683.103699,449.030762 684.946777,449.200989 687.425598,450.182739 
	C684.519470,443.308319 682.294373,437.840332 679.858582,432.467834 
	C679.409607,431.477478 678.064697,430.214905 677.212341,430.271362 
	C676.311340,430.331024 675.185181,431.670502 674.711243,432.704742 
	C672.382080,437.787170 670.237061,442.954010 667.297363,448.190155 
	C665.799927,446.029541 664.302490,443.868927 662.805115,441.708282 
	C663.361572,441.722412 663.918091,441.736542 664.474609,441.750671 
	C664.966003,438.949493 666.752441,435.452148 665.694397,433.483948 
	C663.031982,428.531281 657.827881,430.152802 653.253540,430.298218 
	C653.253540,436.873871 653.253540,443.096436 653.253540,449.474091 
	C659.924866,449.847534 654.975891,443.784393 658.340088,441.830292 
	C659.270569,443.381561 660.329163,444.927612 661.164368,446.586090 
	C662.721313,449.677399 664.890381,450.590820 668.551147,449.418335 
M399.144684,389.612091 
	C406.248779,385.376740 413.352875,381.141388 420.705292,376.757965 
	C421.262115,378.435699 421.719025,379.673431 422.085480,380.937439 
	C427.096649,398.223236 432.653473,401.037292 448.890045,393.087646 
	C457.165497,389.035919 464.704865,383.480865 472.767181,378.487488 
	C472.876099,378.778381 473.168610,379.487427 473.409393,380.213623 
	C479.680115,399.126099 495.542511,406.020966 513.212769,396.609222 
	C522.393311,391.719330 530.653076,385.108551 539.382446,379.356598 
	C540.947815,378.325104 542.917908,376.785126 544.457031,377.027802 
	C551.682434,378.167328 558.822571,379.847260 566.720459,381.485016 
	C568.080139,387.750641 573.054810,392.564362 579.525940,396.239685 
	C588.863037,401.542664 598.928711,401.871368 609.117493,400.457642 
	C634.002808,397.004608 654.981750,385.152008 673.919434,369.322357 
	C679.883423,364.337128 686.097473,359.211639 687.979736,351.061310 
	C688.460205,348.980988 688.624695,345.805725 687.446899,344.651764 
	C686.268494,343.497253 682.763245,343.394470 681.089417,344.311615 
	C675.595032,347.322205 670.267456,350.735168 665.242065,354.484497 
	C653.449097,363.282959 641.154785,371.128815 627.206238,376.072968 
	C621.939819,377.939667 616.662354,378.133331 610.498962,375.238953 
	C613.169739,373.935883 615.099976,373.120392 616.907715,372.089905 
	C624.114441,367.981659 631.719299,364.392914 638.330627,359.474426 
	C643.828796,355.384064 648.980591,350.263489 652.782593,344.591583 
	C658.360107,336.270813 654.372192,327.272339 644.662964,324.907837 
	C640.887878,323.988525 636.670105,323.827301 632.827393,324.428650 
	C616.087097,327.048279 600.964050,333.746643 587.455444,343.927429 
	C582.017395,348.025818 577.119812,352.850586 571.608765,356.836761 
	C570.038025,357.972839 566.844238,358.105408 564.985474,357.312744 
	C562.174438,356.114044 562.937134,353.432373 563.876404,350.831879 
	C565.051025,347.579956 566.079590,344.141357 566.342834,340.719604 
	C567.094727,330.949829 560.511169,326.253906 551.213562,329.632385 
	C550.434875,329.915283 549.618835,330.178101 548.934265,330.625092 
	C538.958679,337.138702 531.586670,345.457123 530.024963,357.845306 
	C529.891541,358.903259 529.411255,360.186707 528.645935,360.852417 
	C523.504639,365.324463 518.318420,369.752686 512.993225,374.002655 
	C509.436279,376.841370 506.602386,375.626526 504.410278,371.922974 
	C500.419128,365.180084 501.142670,357.157410 506.358307,351.107574 
	C509.833923,347.076050 513.634888,343.264832 516.649780,338.911530 
	C520.505676,333.343903 518.931213,329.772034 512.433655,327.753174 
	C498.437164,323.404327 484.690735,328.992157 477.998657,343.220215 
	C474.226715,351.239655 469.227081,357.380463 461.999512,362.183044 
	C450.603394,369.755463 452.192413,368.274017 448.705994,358.078796 
	C446.124878,350.530975 442.971954,348.442261 434.836945,348.940277 
	C425.884399,349.488373 418.445496,354.022156 410.863220,358.199219 
	C404.313416,361.807617 397.773804,365.468018 391.003723,368.620087 
	C389.260010,369.431946 386.665466,368.416351 384.461792,368.240265 
	C385.289062,366.229126 385.571442,363.572632 387.045776,362.327820 
	C391.472534,358.590149 396.062134,354.836670 401.141876,352.127472 
	C409.927917,347.441620 419.104187,343.479187 428.170227,339.330231 
	C432.318665,337.431763 434.692505,334.490326 433.590973,329.903015 
	C432.422058,325.035217 428.284058,326.199493 424.939240,326.511932 
	C407.641571,328.127838 391.612152,334.024719 376.091736,341.446930 
	C366.901489,345.841919 358.065430,350.839203 351.442627,358.900574 
	C344.488983,367.364655 344.066803,379.415009 350.361267,389.145844 
	C356.611938,398.808990 366.558197,402.864563 377.568756,399.199402 
	C384.772491,396.801361 391.539581,393.091553 399.144684,389.612091 
M270.879181,398.795959 
	C280.814911,403.243683 290.057465,401.157440 298.904388,395.748016 
	C330.182281,376.623291 355.242157,351.250946 373.860901,319.744904 
	C376.727448,314.894196 377.358246,308.454193 377.993927,302.636749 
	C378.516296,297.855896 375.271759,294.596741 370.705353,293.083435 
	C363.786438,290.790558 356.943573,291.406769 352.505890,297.343994 
	C346.783875,304.999573 341.301117,313.091003 337.331116,321.736694 
	C331.862183,333.646820 325.745148,344.992188 316.759613,354.506470 
	C312.233246,359.299194 307.180908,363.849487 301.635376,367.351929 
	C296.367584,370.679016 290.588806,368.661774 285.795898,365.166138 
	C281.433685,361.984619 281.750641,357.180420 283.317383,352.868195 
	C284.881348,348.563538 287.023102,344.322266 289.665344,340.586304 
	C295.232422,332.714905 301.725403,325.478699 307.038086,317.452118 
	C313.386261,307.861206 309.455750,298.771301 298.403259,295.529205 
	C294.839508,294.483826 291.799988,294.805206 289.486420,297.893677 
	C282.716431,306.931152 274.945557,315.421936 269.505127,325.204865 
	C261.289124,339.978790 249.057770,350.420013 236.052643,360.247040 
	C232.328949,363.060760 227.606903,364.932953 223.052856,366.170197 
	C217.585770,367.655457 213.450745,362.582733 215.852966,357.424347 
	C218.151855,352.487885 221.194000,347.861664 224.228180,343.311646 
	C229.211578,335.838593 234.823532,328.763550 239.492966,321.107544 
	C245.621887,311.058533 243.609390,303.924408 233.712112,297.528503 
	C227.308472,293.390289 223.396423,293.848999 218.804718,299.987976 
	C210.533661,311.046173 202.213577,322.090118 194.492264,333.530334 
	C187.781540,343.473236 182.638397,354.231201 179.719345,366.058258 
	C176.747314,378.099915 181.025482,387.157104 189.821365,394.863617 
	C194.764252,399.194336 200.614120,400.562927 206.566162,398.345642 
	C213.685959,395.693359 220.864746,392.718933 227.238144,388.659668 
	C236.123199,383.000702 244.285446,376.206909 252.913544,369.782196 
	C253.119644,382.379639 258.255066,392.492554 270.879181,398.795959 
M578.479492,315.016815 
	C582.736816,314.399780 587.328735,314.597717 591.188843,313.013031 
	C602.838074,308.230682 614.247803,302.849792 625.619080,297.425842 
	C626.969910,296.781525 627.504883,294.426666 628.418091,292.864746 
	C626.477844,292.545929 624.450317,291.717407 622.618286,292.030853 
	C620.039185,292.472076 617.598267,293.742584 615.109985,294.689270 
	C607.252869,297.678650 600.119934,296.375641 593.510925,291.270050 
	C589.427002,288.115143 585.261169,285.055420 581.010437,282.129761 
	C574.191162,277.436340 566.552795,274.496643 558.378906,276.495728 
	C541.992798,280.503265 528.507446,290.045349 515.808838,300.723846 
	C514.851746,301.528656 514.718140,303.312805 514.201782,304.641754 
	C515.698547,305.096405 517.179199,305.821594 518.697693,305.912537 
	C519.745544,305.975281 520.944031,305.316711 521.906128,304.711639 
	C526.394104,301.888977 531.022217,302.020447 535.796143,303.796387 
	C539.852722,305.305389 543.834290,307.130188 548.008179,308.186157 
	C557.796753,310.662537 567.680664,312.762024 578.479492,315.016815 
M346.762482,440.465820 
	C346.762909,442.298706 346.512054,444.179321 346.847809,445.948578 
	C347.091583,447.233063 348.111725,448.370209 348.785675,449.573029 
	C349.392517,448.434570 350.385773,447.341064 350.524536,446.148163 
	C350.800507,443.775848 350.606201,441.348816 350.606201,438.536896 
	C356.088928,441.339355 355.715637,449.842590 363.592957,449.484619 
	C363.592957,443.483765 363.720795,438.009338 363.475403,432.551636 
	C363.431091,431.566284 361.853088,430.649841 360.983154,429.701569 
	C360.464264,430.011292 359.945404,430.321045 359.426514,430.630768 
	C359.426514,434.108429 359.426514,437.586090 359.426514,441.322693 
	C354.179016,438.348724 354.543182,430.038544 346.761963,430.098694 
	C346.761963,433.553314 346.761963,436.536224 346.762482,440.465820 
M596.633240,441.413940 
	C596.633484,438.581665 596.883911,435.716125 596.513916,432.933044 
	C596.360352,431.777527 594.881409,430.798157 594.005249,429.738678 
	C593.467285,430.046234 592.929321,430.353821 592.391357,430.661407 
	C592.391357,434.153503 592.391357,437.645630 592.391357,441.717560 
	C581.758606,430.301880 581.758606,430.301880 579.371948,430.873810 
	C579.371948,436.110046 579.278076,441.428802 579.457153,446.738312 
	C579.489990,447.710876 580.632812,448.646027 581.263245,449.598480 
	C581.927185,448.548859 583.037354,447.550354 583.164673,446.439240 
	C583.452515,443.926819 583.255188,441.358765 583.255188,438.813354 
	C586.182922,440.888428 587.881897,443.239532 589.528015,445.627075 
	C591.186035,448.031982 592.494629,451.110626 596.637634,448.781403 
	C596.637634,446.650360 596.637634,444.502380 596.633240,441.413940 
M302.576538,433.150208 
	C302.018372,434.157501 301.355652,435.121735 300.920227,436.179565 
	C299.125092,440.540802 300.177948,444.480835 303.477051,447.534912 
	C306.662567,450.483856 310.614929,450.945435 314.620972,449.122406 
	C318.732758,447.251282 320.972137,443.718018 320.020416,439.490753 
	C319.328033,436.415405 317.469757,432.817596 314.989990,431.112457 
	C311.209473,428.512787 306.720306,429.343079 302.576538,433.150208 
M543.034180,448.500275 
	C541.718079,446.209351 540.401978,443.918427 539.085876,441.627502 
	C539.594971,441.659180 540.104126,441.690826 540.613220,441.722504 
	C541.021362,438.810242 542.755005,435.084808 541.568542,433.150757 
	C538.892700,428.788696 533.887268,430.025909 529.051636,430.355286 
	C529.051636,436.104828 528.957703,441.551788 529.146606,446.988892 
	C529.177124,447.866058 530.466431,448.699432 531.173828,449.553070 
	C531.763245,448.745850 532.715576,447.999481 532.863525,447.118195 
	C533.137756,445.483643 532.942078,443.770264 532.942078,442.089691 
	C533.407654,442.009766 533.873230,441.929810 534.338806,441.849884 
	C535.423157,443.596893 536.209778,445.677216 537.680847,446.991425 
	C538.993958,448.164551 541.063171,448.491364 543.034180,448.500275 
M378.533478,446.135864 
	C375.105347,446.540405 372.313293,445.223114 371.613312,441.908356 
	C371.196899,439.936279 371.724884,436.690735 373.071899,435.687439 
	C374.824982,434.381683 377.815887,434.755615 380.266998,434.362549 
	C381.723969,434.128876 383.167389,433.810425 384.616882,433.530121 
	C384.543182,432.751617 384.469513,431.973083 384.395813,431.194550 
	C381.256348,430.790344 378.067688,429.832703 374.988495,430.106384 
	C369.851685,430.562927 366.431854,435.736725 367.116089,441.017365 
	C367.922943,447.244232 372.461243,450.627441 379.205566,450.029755 
	C384.591980,449.552429 385.180176,448.631042 384.929718,440.981903 
	C384.903564,440.183594 384.780365,439.388428 384.677185,438.336945 
	C383.162079,438.232239 381.824463,437.886597 380.601685,438.126526 
	C379.374451,438.367310 378.261688,439.191772 377.098755,439.760437 
	C377.938873,440.494171 378.709015,441.334503 379.632721,441.940918 
	C382.024139,443.510712 382.017578,444.839294 378.533478,446.135864 
M297.913239,438.794556 
	C295.285797,429.911255 286.962311,426.768372 280.932159,432.382660 
	C277.647583,435.440674 276.730896,440.634979 278.862030,444.741302 
	C281.159332,449.167847 285.054291,450.577942 289.726166,449.929871 
	C294.568787,449.258118 297.195190,445.792480 297.913239,438.794556 
M429.055878,434.709778 
	C428.982513,433.252686 428.909149,431.795593 428.822296,430.070465 
	C422.360168,430.073944 426.836792,435.762238 424.500946,437.421082 
	C422.196564,437.421082 419.939819,437.421082 417.534698,437.421082 
	C417.335266,434.855835 417.160767,432.611786 416.896088,429.207794 
	C415.281982,430.448120 413.579132,431.128479 413.545410,431.883453 
	C413.308838,437.179138 413.353943,442.491943 413.499359,447.794067 
	C413.516205,448.408722 414.700531,448.991425 415.343567,449.588959 
	C415.972626,448.831726 417.022888,448.136414 417.145111,447.304749 
	C417.418884,445.442169 417.230774,443.511719 417.230774,441.506714 
	C420.266327,441.506714 422.482300,441.506714 424.434662,441.506714 
	C426.385803,443.991760 422.935242,449.058350 429.054779,449.974609 
	C429.054779,444.570923 429.054779,440.118225 429.055878,434.709778 
M610.400391,431.062653 
	C608.974426,431.327606 606.649780,431.150055 606.266479,431.928375 
	C603.522705,437.500793 601.173950,443.267670 598.059814,450.448090 
	C600.729919,449.295227 602.427002,449.076416 603.264160,448.111542 
	C606.768677,444.072296 609.776062,444.111053 613.510986,448.210785 
	C614.362915,449.145874 616.127502,449.249481 618.553284,450.126892 
	C615.627075,443.161652 613.218811,437.429260 610.400391,431.062653 
M440.511536,449.640656 
	C446.638153,449.637939 446.638153,449.637939 446.535889,445.889679 
	C443.770386,445.889679 440.990814,445.889679 438.207581,445.889679 
	C436.687042,441.772583 438.970734,441.577026 441.781738,441.606720 
	C443.881531,441.628876 446.922180,442.452637 445.731354,438.105957 
	C443.159698,437.982422 440.558960,437.857452 437.958191,437.732513 
	C437.694397,437.297180 437.430634,436.861816 437.166840,436.426483 
	C438.200043,435.607452 439.135162,434.573425 440.299652,434.042328 
	C441.125702,433.665619 442.347778,434.216949 443.238495,433.908173 
	C444.537109,433.457947 445.696899,432.607208 446.915863,431.927246 
	C445.645508,431.296722 444.414520,430.244446 443.096832,430.121552 
	C440.152283,429.846954 437.164520,430.035706 433.993347,430.035706 
	C433.993347,436.662384 433.993347,442.913300 433.993347,449.642700 
	C436.026550,449.642700 437.813293,449.642700 440.511536,449.640656 
M551.703064,445.925293 
	C551.000000,444.737640 550.296997,443.549988 549.875244,442.837433 
	C552.720215,440.056091 557.825562,444.342163 558.303650,437.810730 
	C555.257507,437.810730 552.688110,437.810730 550.258911,437.810730 
	C549.041199,432.805115 552.430176,434.053253 554.611938,433.972900 
	C558.731567,433.821289 558.734009,433.887482 558.530518,430.317444 
	C554.477417,430.317444 550.420044,430.317444 546.228699,430.317444 
	C546.228699,436.797455 546.228699,443.000305 546.228699,449.163269 
	C557.322876,450.544434 559.090393,450.085571 558.546692,445.942352 
	C556.575806,445.942352 554.587402,445.942352 551.703064,445.925293 
M648.944336,440.226929 
	C648.945618,437.740173 649.237244,435.203308 648.820312,432.788788 
	C648.624817,431.656860 647.062622,430.760925 646.119873,429.758057 
	C644.946350,434.226074 645.346924,437.758514 644.784729,441.130402 
	C644.483765,442.935577 642.524475,444.464203 641.313477,446.117584 
	C639.959595,444.565216 637.734375,443.163452 637.434631,441.428925 
	C636.824097,437.895782 637.251831,434.183258 637.251831,428.996643 
	C635.418518,430.461578 633.585876,431.231903 633.555481,432.067810 
	C633.405884,436.183990 633.421875,440.360718 633.984802,444.432434 
	C634.508911,448.224030 637.383667,449.940552 641.097412,450.019928 
	C645.821167,450.120880 648.053467,447.525177 648.944336,440.226929 
M477.953674,430.590912 
	C475.804962,429.504059 474.387543,429.841492 474.415680,432.557404 
	C474.453339,436.198273 474.434418,439.850616 474.725464,443.475098 
	C475.052826,447.552216 477.603699,449.735504 481.571167,449.995270 
	C485.784668,450.271149 488.796783,448.257782 489.410858,444.040039 
	C489.979034,440.137268 489.976868,436.116608 489.797211,432.167389 
	C489.758484,431.316376 487.884338,430.548828 485.932922,429.019836 
	C485.932922,434.463318 486.312408,438.160583 485.761688,441.713654 
	C485.512207,443.323242 483.416016,444.646576 482.157532,446.099731 
	C480.858612,444.682373 478.717224,443.413818 478.435150,441.816864 
	C477.837830,438.434845 478.210510,434.881561 477.953674,430.590912 
M512.250305,430.122986 
	C511.302826,430.887756 509.583557,431.611816 509.540710,432.424286 
	C509.349609,436.047729 509.439941,439.716217 509.802277,443.330963 
	C510.254303,447.840363 513.108276,450.101532 517.546753,449.984314 
	C522.104492,449.863983 524.477600,447.054443 524.847961,442.726288 
	C525.129822,439.432159 525.152466,436.072754 524.809753,432.792633 
	C524.696594,431.709167 523.083252,430.782440 522.155823,429.784027 
	C521.754150,430.111725 521.352539,430.439423 520.950867,430.767090 
	C520.950867,434.234161 521.342102,437.764923 520.792236,441.142487 
	C520.500122,442.937195 518.576660,444.466339 517.389587,446.115387 
	C516.022217,444.569702 513.815979,443.192719 513.464050,441.442810 
	C512.756653,437.925415 513.060669,434.204620 512.250305,430.122986 
M263.155914,448.628876 
	C269.217651,451.098999 272.031830,450.567596 276.683929,445.217285 
	C274.402924,445.217285 272.975739,445.339294 271.577332,445.190704 
	C269.029572,444.920044 265.395844,445.354645 264.251434,443.896729 
	C262.940308,442.226318 263.067413,438.504242 263.977509,436.239227 
	C265.203003,433.189362 268.229279,433.259766 271.259979,434.421814 
	C272.473236,434.886993 274.089874,434.300323 276.410858,434.125580 
	C271.144989,428.908875 265.211914,428.751495 261.338959,432.706665 
	C257.255310,436.877075 257.764099,443.257843 263.155914,448.628876 
M719.402405,444.536377 
	C719.403687,445.035645 719.234070,445.623230 719.437927,446.017792 
	C720.072388,447.245880 720.848389,448.400787 721.569519,449.584106 
	C722.125061,448.424225 722.788757,447.302521 723.214661,446.096863 
	C724.229065,443.225708 724.900024,440.210236 726.149048,437.451935 
	C727.213867,435.100555 728.891052,433.026489 730.441895,430.604065 
	C724.111511,428.545685 724.460510,434.872498 721.448975,436.719177 
	C718.381287,435.048981 718.760437,428.239563 712.867737,430.418274 
	C715.079712,434.917603 717.238708,439.309174 719.402405,444.536377 
M471.545624,432.410553 
	C470.603088,431.625458 469.716797,430.261353 468.707550,430.163361 
	C465.634949,429.865051 462.514923,430.055206 459.189758,430.055206 
	C459.189758,436.744965 459.189758,442.945282 459.189758,449.546753 
	C465.558594,449.672180 461.331818,444.047455 463.609436,442.235138 
	C470.938782,441.579285 470.938782,441.579285 470.200104,437.970123 
	C467.985535,437.970123 465.711395,437.970123 463.465363,437.970123 
	C463.164246,434.090546 463.168488,434.145569 466.088257,433.921051 
	C467.835480,433.786682 469.566956,433.447906 471.545624,432.410553 
M497.749695,446.791473 
	C498.352966,447.735657 498.956238,448.679810 499.559509,449.623993 
	C500.247772,448.732849 501.484009,447.869354 501.530518,446.945892 
	C501.743896,442.711914 501.624329,438.461151 501.624329,434.282349 
	C503.866852,434.016510 505.437164,433.830383 506.980408,433.647430 
	C506.720917,430.180939 501.183411,428.694397 494.051849,430.152985 
	C493.087006,430.350342 492.426331,432.034698 491.200745,433.557373 
	C494.331268,433.935303 495.940643,434.129578 497.749939,434.347992 
	C497.749939,438.341553 497.749939,442.137695 497.749695,446.791473 
M401.359528,443.308594 
	C401.371124,449.485687 401.371124,449.485687 405.298126,448.793884 
	C405.298126,444.059143 405.298126,439.270142 405.298126,434.335815 
	C407.324585,434.067291 409.086731,433.833801 410.838013,433.601746 
	C410.473175,429.454620 409.301544,429.207092 396.220032,430.329742 
	C394.251099,435.682678 399.405548,433.084961 401.359161,434.788788 
	C401.359161,437.110748 401.359161,439.741180 401.359528,443.308594 
M625.634460,442.367859 
	C625.634460,439.625244 625.634460,436.882599 625.634460,434.168152 
	C627.820557,434.003235 629.277222,433.893341 630.728455,433.783875 
	C632.300232,429.907837 629.884094,430.048309 627.373108,430.011383 
	C616.285461,429.848358 616.285889,429.820251 616.384155,433.647949 
	C618.102844,433.881775 619.852844,434.119843 621.746399,434.377472 
	C621.746399,437.557587 621.500244,440.559418 621.829895,443.496613 
	C622.063843,445.581573 623.074829,447.579315 623.739014,449.615997 
	C624.370667,447.510895 625.002319,445.405792 625.634460,442.367859 
M327.192078,430.505920 
	C326.049316,431.039734 323.938904,431.531738 323.913727,432.113861 
	C323.665741,437.855042 323.763855,443.611176 323.763855,449.292572 
	C334.888000,450.332306 335.447388,450.179352 335.439209,445.748291 
	C332.903778,445.748291 330.357727,445.748291 327.518219,445.748291 
	C327.518219,440.557343 327.518219,435.927094 327.192078,430.505920 
M705.955078,449.629730 
	C708.273438,449.631470 710.629822,449.879272 712.893799,449.529297 
	C713.996582,449.358856 714.926819,448.072510 715.935181,447.291290 
	C715.639099,446.790680 715.343018,446.290100 715.046936,445.789490 
	C712.500671,445.789490 709.954407,445.789490 707.146057,445.789490 
	C707.146057,440.355194 707.146057,435.418579 707.146057,430.481995 
	C706.678955,430.214294 706.211853,429.946625 705.744751,429.678925 
	C704.950684,430.833893 703.545288,431.951324 703.471680,433.150482 
	C703.198364,437.604767 703.258667,442.090240 703.442139,446.553802 
	C703.484741,447.589081 704.508728,448.584076 705.955078,449.629730 
M688.962402,431.915771 
	C688.962402,437.682800 688.962402,443.449799 688.962402,449.136688 
	C699.497559,450.386597 700.613098,450.086365 700.556458,446.082916 
	C698.141174,445.970673 695.713867,445.857880 692.949402,445.729401 
	C692.949402,441.264526 692.972229,437.128967 692.941833,432.993774 
	C692.919373,429.934967 691.746216,428.982422 688.962402,431.915771 
M337.960602,446.988617 
	C338.967285,447.953003 339.973938,448.917389 340.980621,449.881775 
	C342.043488,443.531067 341.980133,438.230682 342.066528,432.932739 
	C342.120819,429.604889 340.485016,429.613037 337.960022,430.454376 
	C337.960022,435.817841 337.960022,440.950012 337.960602,446.988617 
M566.634766,448.232086 
	C566.368042,447.323517 566.101318,446.414978 565.834595,445.506409 
	C564.911438,445.985382 563.485413,446.247223 563.166077,446.986847 
	C562.418274,448.719116 562.200928,450.680359 561.768738,452.548859 
	C562.278809,452.850433 562.788818,453.151978 563.298828,453.453522 
	C564.292908,451.946716 565.287048,450.439941 566.634766,448.232086 
z"/>
<path fill="#0672CC" opacity="1.000000" stroke="none" 
	d="
M398.823486,389.790710 
	C391.539581,393.091553 384.772491,396.801361 377.568756,399.199402 
	C366.558197,402.864563 356.611938,398.808990 350.361267,389.145844 
	C344.066803,379.415009 344.488983,367.364655 351.442627,358.900574 
	C358.065430,350.839203 366.901489,345.841919 376.091736,341.446930 
	C391.612152,334.024719 407.641571,328.127838 424.939240,326.511932 
	C428.284058,326.199493 432.422058,325.035217 433.590973,329.903015 
	C434.692505,334.490326 432.318665,337.431763 428.170227,339.330231 
	C419.104187,343.479187 409.927917,347.441620 401.141876,352.127472 
	C396.062134,354.836670 391.472534,358.590149 387.045776,362.327820 
	C385.571442,363.572632 385.289062,366.229126 384.461792,368.240265 
	C386.665466,368.416351 389.260010,369.431946 391.003723,368.620087 
	C397.773804,365.468018 404.313416,361.807617 410.863220,358.199219 
	C418.445496,354.022156 425.884399,349.488373 434.836945,348.940277 
	C442.971954,348.442261 446.124878,350.530975 448.705994,358.078796 
	C452.192413,368.274017 450.603394,369.755463 461.999512,362.183044 
	C469.227081,357.380463 474.226715,351.239655 477.998657,343.220215 
	C484.690735,328.992157 498.437164,323.404327 512.433655,327.753174 
	C518.931213,329.772034 520.505676,333.343903 516.649780,338.911530 
	C513.634888,343.264832 509.833923,347.076050 506.358307,351.107574 
	C501.142670,357.157410 500.419128,365.180084 504.410278,371.922974 
	C506.602386,375.626526 509.436279,376.841370 512.993225,374.002655 
	C518.318420,369.752686 523.504639,365.324463 528.645935,360.852417 
	C529.411255,360.186707 529.891541,358.903259 530.024963,357.845306 
	C531.586670,345.457123 538.958679,337.138702 548.934265,330.625092 
	C549.618835,330.178101 550.434875,329.915283 551.213562,329.632385 
	C560.511169,326.253906 567.094727,330.949829 566.342834,340.719604 
	C566.079590,344.141357 565.051025,347.579956 563.876404,350.831879 
	C562.937134,353.432373 562.174438,356.114044 564.985474,357.312744 
	C566.844238,358.105408 570.038025,357.972839 571.608765,356.836761 
	C577.119812,352.850586 582.017395,348.025818 587.455444,343.927429 
	C600.964050,333.746643 616.087097,327.048279 632.827393,324.428650 
	C636.670105,323.827301 640.887878,323.988525 644.662964,324.907837 
	C654.372192,327.272339 658.360107,336.270813 652.782593,344.591583 
	C648.980591,350.263489 643.828796,355.384064 638.330627,359.474426 
	C631.719299,364.392914 624.114441,367.981659 616.907715,372.089905 
	C615.099976,373.120392 613.169739,373.935883 610.498962,375.238953 
	C616.662354,378.133331 621.939819,377.939667 627.206238,376.072968 
	C641.154785,371.128815 653.449097,363.282959 665.242065,354.484497 
	C670.267456,350.735168 675.595032,347.322205 681.089417,344.311615 
	C682.763245,343.394470 686.268494,343.497253 687.446899,344.651764 
	C688.624695,345.805725 688.460205,348.980988 687.979736,351.061310 
	C686.097473,359.211639 679.883423,364.337128 673.919434,369.322357 
	C654.981750,385.152008 634.002808,397.004608 609.117493,400.457642 
	C598.928711,401.871368 588.863037,401.542664 579.525940,396.239685 
	C573.054810,392.564362 568.080139,387.750641 566.720459,381.485016 
	C558.822571,379.847260 551.682434,378.167328 544.457031,377.027802 
	C542.917908,376.785126 540.947815,378.325104 539.382446,379.356598 
	C530.653076,385.108551 522.393311,391.719330 513.212769,396.609222 
	C495.542511,406.020966 479.680115,399.126099 473.409393,380.213623 
	C473.168610,379.487427 472.876099,378.778381 472.767181,378.487488 
	C464.704865,383.480865 457.165497,389.035919 448.890045,393.087646 
	C432.653473,401.037292 427.096649,398.223236 422.085480,380.937439 
	C421.719025,379.673431 421.262115,378.435699 420.705292,376.757965 
	C413.352875,381.141388 406.248779,385.376740 398.823486,389.790710 
M628.400024,347.203979 
	C628.107544,343.488403 626.087891,341.335999 622.376648,341.457855 
	C614.904663,341.703278 604.136597,349.675781 601.817505,356.797607 
	C601.118164,358.945435 601.455994,361.430969 601.318726,363.761810 
	C601.838867,364.117523 602.359070,364.473267 602.879211,364.828979 
	C611.290588,359.162689 619.701965,353.496399 628.400024,347.203979 
z"/>
<path fill="#0572CD" opacity="1.000000" stroke="none" 
	d="
M270.552124,398.601776 
	C258.255066,392.492554 253.119644,382.379639 252.913544,369.782196 
	C244.285446,376.206909 236.123199,383.000702 227.238144,388.659668 
	C220.864746,392.718933 213.685959,395.693359 206.566162,398.345642 
	C200.614120,400.562927 194.764252,399.194336 189.821365,394.863617 
	C181.025482,387.157104 176.747314,378.099915 179.719345,366.058258 
	C182.638397,354.231201 187.781540,343.473236 194.492264,333.530334 
	C202.213577,322.090118 210.533661,311.046173 218.804718,299.987976 
	C223.396423,293.848999 227.308472,293.390289 233.712112,297.528503 
	C243.609390,303.924408 245.621887,311.058533 239.492966,321.107544 
	C234.823532,328.763550 229.211578,335.838593 224.228180,343.311646 
	C221.194000,347.861664 218.151855,352.487885 215.852966,357.424347 
	C213.450745,362.582733 217.585770,367.655457 223.052856,366.170197 
	C227.606903,364.932953 232.328949,363.060760 236.052643,360.247040 
	C249.057770,350.420013 261.289124,339.978790 269.505127,325.204865 
	C274.945557,315.421936 282.716431,306.931152 289.486420,297.893677 
	C291.799988,294.805206 294.839508,294.483826 298.403259,295.529205 
	C309.455750,298.771301 313.386261,307.861206 307.038086,317.452118 
	C301.725403,325.478699 295.232422,332.714905 289.665344,340.586304 
	C287.023102,344.322266 284.881348,348.563538 283.317383,352.868195 
	C281.750641,357.180420 281.433685,361.984619 285.795898,365.166138 
	C290.588806,368.661774 296.367584,370.679016 301.635376,367.351929 
	C307.180908,363.849487 312.233246,359.299194 316.759613,354.506470 
	C325.745148,344.992188 331.862183,333.646820 337.331116,321.736694 
	C341.301117,313.091003 346.783875,304.999573 352.505890,297.343994 
	C356.943573,291.406769 363.786438,290.790558 370.705353,293.083435 
	C375.271759,294.596741 378.516296,297.855896 377.993927,302.636749 
	C377.358246,308.454193 376.727448,314.894196 373.860901,319.744904 
	C355.242157,351.250946 330.182281,376.623291 298.904388,395.748016 
	C290.057465,401.157440 280.814911,403.243683 270.552124,398.601776 
z"/>
<path fill="#32CA72" opacity="1.000000" stroke="none" 
	d="
M578.002747,315.015442 
	C567.680664,312.762024 557.796753,310.662537 548.008179,308.186157 
	C543.834290,307.130188 539.852722,305.305389 535.796143,303.796387 
	C531.022217,302.020447 526.394104,301.888977 521.906128,304.711639 
	C520.944031,305.316711 519.745544,305.975281 518.697693,305.912537 
	C517.179199,305.821594 515.698547,305.096405 514.201782,304.641754 
	C514.718140,303.312805 514.851746,301.528656 515.808838,300.723846 
	C528.507446,290.045349 541.992798,280.503265 558.378906,276.495728 
	C566.552795,274.496643 574.191162,277.436340 581.010437,282.129761 
	C585.261169,285.055420 589.427002,288.115143 593.510925,291.270050 
	C600.119934,296.375641 607.252869,297.678650 615.109985,294.689270 
	C617.598267,293.742584 620.039185,292.472076 622.618286,292.030853 
	C624.450317,291.717407 626.477844,292.545929 628.418091,292.864746 
	C627.504883,294.426666 626.969910,296.781525 625.619080,297.425842 
	C614.247803,302.849792 602.838074,308.230682 591.188843,313.013031 
	C587.328735,314.597717 582.736816,314.399780 578.002747,315.015442 
z"/>
<path fill="#31AC66" opacity="1.000000" stroke="none" 
	d="
M775.876709,357.975159 
	C777.494812,356.870209 778.997131,355.506042 780.757568,354.719727 
	C783.549255,353.472687 785.693726,353.987701 787.074646,357.267914 
	C789.200317,362.317261 791.740784,367.194641 794.180847,372.107452 
	C794.957520,373.671295 795.974487,375.115845 797.493774,377.626831 
	C798.628784,375.475098 799.522095,374.353699 799.830688,373.089539 
	C800.775635,369.218109 801.454590,365.282745 802.313049,361.389038 
	C803.800781,354.640778 805.238220,353.680573 812.673645,354.541321 
	C812.673645,355.754120 812.892883,357.051727 812.639526,358.249420 
	C810.198669,369.788940 807.419739,381.264893 805.320862,392.864594 
	C804.586365,396.923828 802.610046,397.198151 799.532104,396.781158 
	C795.554138,396.242218 792.961487,394.071320 791.336121,390.363586 
	C789.149780,385.376099 786.706787,380.498474 784.264832,375.628387 
	C783.855835,374.812866 782.894470,374.274323 781.719849,373.165558 
	C780.542358,379.005463 779.622498,384.003265 778.514648,388.959045 
	C776.897217,396.193817 775.426941,397.186188 766.768799,396.550110 
	C767.298401,394.699615 767.782654,393.007538 768.521179,390.609558 
	C770.118225,383.269653 771.460938,376.635651 772.803711,370.001617 
	C772.886963,369.561371 772.970215,369.121094 773.281128,368.063660 
	C774.298157,364.289337 775.087463,361.132263 775.876709,357.975159 
z"/>
<path fill="#31AC66" opacity="1.000000" stroke="none" 
	d="
M726.069336,368.038513 
	C726.390076,367.623444 726.710876,367.208374 727.381104,366.359772 
	C729.855408,363.648132 731.980225,361.369995 734.105042,359.091919 
	C734.105042,359.091919 734.010071,359.008423 734.364075,359.015167 
	C735.566650,358.393768 736.415161,357.765625 737.263733,357.137482 
	C737.263733,357.137482 737.652405,357.105835 738.163086,357.008270 
	C740.117310,356.278900 741.560913,355.647095 743.004456,355.015320 
	C743.452393,355.000854 743.900391,354.986389 745.134521,354.958069 
	C750.600037,355.325745 755.279236,355.707275 759.958496,356.088776 
	C760.397949,356.390411 760.837463,356.692017 761.667297,357.278198 
	C762.379456,357.691528 762.701294,357.820312 763.023071,357.949097 
	C763.023071,357.949097 763.007080,358.003632 763.155151,358.265198 
	C764.205750,359.346222 765.108398,360.165649 766.010986,360.985077 
	C766.010986,360.985077 766.000000,361.000000 766.045166,361.267487 
	C766.360107,361.765381 766.629944,361.995819 766.899719,362.226257 
	C766.899719,362.226257 766.952332,362.631104 767.061523,363.144012 
	C767.772705,365.108093 768.374756,366.559265 768.976868,368.010437 
	C768.999329,368.944122 769.021790,369.877838 769.009766,371.454895 
	C767.666321,376.740143 766.357300,381.382019 765.048279,386.023926 
	C764.697937,386.424225 764.347534,386.824524 763.637695,387.645416 
	C761.825562,389.689545 760.372986,391.313110 758.920410,392.936646 
	C758.920410,392.936646 758.988403,392.995514 758.709106,393.010040 
	C758.218628,393.295593 758.007568,393.566650 757.796509,393.837708 
	C757.796509,393.837708 757.960632,393.900543 757.575073,393.903259 
	C756.317749,394.530457 755.446045,395.154968 754.574280,395.779449 
	C754.574280,395.779449 754.248169,395.815186 753.735840,395.945160 
	C745.476746,399.266052 737.735291,399.131561 729.998535,396.038086 
	C729.998535,396.038086 729.763611,395.820984 729.455322,395.550781 
	C728.800293,395.102814 728.453613,394.925049 728.106934,394.747253 
	C727.189209,393.649536 726.271423,392.551819 725.119019,390.908264 
	C724.292053,389.230133 723.699829,388.097839 723.107666,386.965546 
	C723.064270,386.525055 723.020874,386.084564 722.968567,384.987915 
	C722.861572,383.894012 722.763489,383.456268 722.665405,383.018555 
	C722.698486,382.257385 722.731506,381.496216 722.832153,380.039978 
	C722.873291,378.896790 722.846863,378.448608 722.820496,378.000458 
	C722.891541,377.557922 722.962585,377.115417 723.253479,376.076782 
	C724.338684,372.999969 725.204041,370.519257 726.069336,368.038513 
M757.719360,367.086731 
	C752.990356,362.597076 746.860352,361.965637 740.889587,365.353302 
	C734.899536,368.751862 730.753662,377.042511 732.928833,383.075806 
	C733.830383,385.576477 736.572021,388.256409 739.086792,389.163116 
	C744.900452,391.259216 750.306458,389.180695 754.365173,384.708344 
	C758.722168,379.907440 760.545837,374.235168 757.719360,367.086731 
z"/>
<path fill="#33AC67" opacity="1.000000" stroke="none" 
	d="
M724.682678,363.814026 
	C722.058899,363.653412 719.397339,363.720367 716.817810,363.292786 
	C705.723206,361.453552 697.253601,367.282654 695.369263,378.207855 
	C694.212158,384.916748 696.589050,388.525787 703.331726,389.281860 
	C706.894897,389.681396 710.602905,388.746185 714.177856,389.099274 
	C716.262268,389.305176 718.213013,390.865112 720.223877,391.815857 
	C718.909668,393.364990 717.897339,395.635040 716.227295,396.334229 
	C710.102112,398.898468 703.656555,399.383392 697.191162,397.491577 
	C689.805237,395.330353 685.451050,390.307220 685.411255,382.624603 
	C685.287659,358.783539 707.505981,350.012177 723.817017,356.082092 
	C725.011230,356.526520 725.990723,357.548126 727.078064,358.949524 
	C726.284973,361.003113 725.483826,362.408569 724.682678,363.814026 
z"/>
<path fill="#254C67" opacity="1.000000" stroke="none" 
	d="
M346.762207,439.992493 
	C346.761963,436.536224 346.761963,433.553314 346.761963,430.098694 
	C354.543182,430.038544 354.179016,438.348724 359.426514,441.322693 
	C359.426514,437.586090 359.426514,434.108429 359.426514,430.630768 
	C359.945404,430.321045 360.464264,430.011292 360.983154,429.701569 
	C361.853088,430.649841 363.431091,431.566284 363.475403,432.551636 
	C363.720795,438.009338 363.592957,443.483765 363.592957,449.484619 
	C355.715637,449.842590 356.088928,441.339355 350.606201,438.536896 
	C350.606201,441.348816 350.800507,443.775848 350.524536,446.148163 
	C350.385773,447.341064 349.392517,448.434570 348.785675,449.573029 
	C348.111725,448.370209 347.091583,447.233063 346.847809,445.948578 
	C346.512054,444.179321 346.762909,442.298706 346.762207,439.992493 
z"/>
<path fill="#2C506A" opacity="1.000000" stroke="none" 
	d="
M596.635437,441.884155 
	C596.637634,444.502380 596.637634,446.650360 596.637634,448.781403 
	C592.494629,451.110626 591.186035,448.031982 589.528015,445.627075 
	C587.881897,443.239532 586.182922,440.888428 583.255188,438.813354 
	C583.255188,441.358765 583.452515,443.926819 583.164673,446.439240 
	C583.037354,447.550354 581.927185,448.548859 581.263245,449.598480 
	C580.632812,448.646027 579.489990,447.710876 579.457153,446.738312 
	C579.278076,441.428802 579.371948,436.110046 579.371948,430.873810 
	C581.758606,430.301880 581.758606,430.301880 592.391357,441.717560 
	C592.391357,437.645630 592.391357,434.153503 592.391357,430.661407 
	C592.929321,430.353821 593.467285,430.046234 594.005249,429.738678 
	C594.881409,430.798157 596.360352,431.777527 596.513916,432.933044 
	C596.883911,435.716125 596.633484,438.581665 596.635437,441.884155 
z"/>
<path fill="#234963" opacity="1.000000" stroke="none" 
	d="
M667.990540,448.826233 
	C664.890381,450.590820 662.721313,449.677399 661.164368,446.586090 
	C660.329163,444.927612 659.270569,443.381561 658.340088,441.830292 
	C654.975891,443.784393 659.924866,449.847534 653.253540,449.474091 
	C653.253540,443.096436 653.253540,436.873871 653.253540,430.298218 
	C657.827881,430.152802 663.031982,428.531281 665.694397,433.483948 
	C666.752441,435.452148 664.966003,438.949493 664.474609,441.750671 
	C663.918091,441.736542 663.361572,441.722412 662.805115,441.708282 
	C664.302490,443.868927 665.799927,446.029541 667.666687,448.264252 
	C668.036011,448.338348 667.990540,448.826233 667.990540,448.826233 
z"/>
<path fill="#1E4662" opacity="1.000000" stroke="none" 
	d="
M302.823181,432.863770 
	C306.720306,429.343079 311.209473,428.512787 314.989990,431.112457 
	C317.469757,432.817596 319.328033,436.415405 320.020416,439.490753 
	C320.972137,443.718018 318.732758,447.251282 314.620972,449.122406 
	C310.614929,450.945435 306.662567,450.483856 303.477051,447.534912 
	C300.177948,444.480835 299.125092,440.540802 300.920227,436.179565 
	C301.355652,435.121735 302.018372,434.157501 302.823181,432.863770 
M316.127350,440.385406 
	C316.297089,436.461731 314.567871,433.907135 310.555054,433.670563 
	C307.122925,433.468170 304.328094,435.523254 304.513763,438.793427 
	C304.652679,441.240601 306.414734,444.733093 308.433228,445.686066 
	C312.018646,447.378693 315.121185,445.495636 316.127350,440.385406 
z"/>
<path fill="#254C67" opacity="1.000000" stroke="none" 
	d="
M542.916504,448.845947 
	C541.063171,448.491364 538.993958,448.164551 537.680847,446.991425 
	C536.209778,445.677216 535.423157,443.596893 534.338806,441.849884 
	C533.873230,441.929810 533.407654,442.009766 532.942078,442.089691 
	C532.942078,443.770264 533.137756,445.483643 532.863525,447.118195 
	C532.715576,447.999481 531.763245,448.745850 531.173828,449.553070 
	C530.466431,448.699432 529.177124,447.866058 529.146606,446.988892 
	C528.957703,441.551788 529.051636,436.104828 529.051636,430.355286 
	C533.887268,430.025909 538.892700,428.788696 541.568542,433.150757 
	C542.755005,435.084808 541.021362,438.810242 540.613220,441.722504 
	C540.104126,441.690826 539.594971,441.659180 539.085876,441.627502 
	C540.401978,443.918427 541.718079,446.209351 542.916504,448.845947 
z"/>
<path fill="#234963" opacity="1.000000" stroke="none" 
	d="
M378.961304,446.099701 
	C382.017578,444.839294 382.024139,443.510712 379.632721,441.940918 
	C378.709015,441.334503 377.938873,440.494171 377.098755,439.760437 
	C378.261688,439.191772 379.374451,438.367310 380.601685,438.126526 
	C381.824463,437.886597 383.162079,438.232239 384.677185,438.336945 
	C384.780365,439.388428 384.903564,440.183594 384.929718,440.981903 
	C385.180176,448.631042 384.591980,449.552429 379.205566,450.029755 
	C372.461243,450.627441 367.922943,447.244232 367.116089,441.017365 
	C366.431854,435.736725 369.851685,430.562927 374.988495,430.106384 
	C378.067688,429.832703 381.256348,430.790344 384.395813,431.194550 
	C384.469513,431.973083 384.543182,432.751617 384.616882,433.530121 
	C383.167389,433.810425 381.723969,434.128876 380.266998,434.362549 
	C377.815887,434.755615 374.824982,434.381683 373.071899,435.687439 
	C371.724884,436.690735 371.196899,439.936279 371.613312,441.908356 
	C372.313293,445.223114 375.105347,446.540405 378.961304,446.099701 
z"/>
<path fill="#1E4662" opacity="1.000000" stroke="none" 
	d="
M297.920715,439.195251 
	C297.195190,445.792480 294.568787,449.258118 289.726166,449.929871 
	C285.054291,450.577942 281.159332,449.167847 278.862030,444.741302 
	C276.730896,440.634979 277.647583,435.440674 280.932159,432.382660 
	C286.962311,426.768372 295.285797,429.911255 297.920715,439.195251 
M293.825684,438.817139 
	C292.810211,435.442078 290.717896,432.885315 287.067047,433.910400 
	C285.112762,434.459106 282.822266,436.604462 282.207306,438.518799 
	C281.095947,441.978455 282.446655,445.090485 286.502350,446.024780 
	C290.511658,446.948364 292.812317,444.884735 293.825684,438.817139 
z"/>
<path fill="#254C67" opacity="1.000000" stroke="none" 
	d="
M429.055328,435.187683 
	C429.054779,440.118225 429.054779,444.570923 429.054779,449.974609 
	C422.935242,449.058350 426.385803,443.991760 424.434662,441.506714 
	C422.482300,441.506714 420.266327,441.506714 417.230774,441.506714 
	C417.230774,443.511719 417.418884,445.442169 417.145111,447.304749 
	C417.022888,448.136414 415.972626,448.831726 415.343567,449.588959 
	C414.700531,448.991425 413.516205,448.408722 413.499359,447.794067 
	C413.353943,442.491943 413.308838,437.179138 413.545410,431.883453 
	C413.579132,431.128479 415.281982,430.448120 416.896088,429.207794 
	C417.160767,432.611786 417.335266,434.855835 417.534698,437.421082 
	C419.939819,437.421082 422.196564,437.421082 424.500946,437.421082 
	C426.836792,435.762238 422.360168,430.073944 428.822296,430.070465 
	C428.909149,431.795593 428.982513,433.252686 429.055328,435.187683 
z"/>
<path fill="#1E4662" opacity="1.000000" stroke="none" 
	d="
M610.605469,431.379761 
	C613.218811,437.429260 615.627075,443.161652 618.553284,450.126892 
	C616.127502,449.249481 614.362915,449.145874 613.510986,448.210785 
	C609.776062,444.111053 606.768677,444.072296 603.264160,448.111542 
	C602.427002,449.076416 600.729919,449.295227 598.059814,450.448090 
	C601.173950,443.267670 603.522705,437.500793 606.266479,431.928375 
	C606.649780,431.150055 608.974426,431.327606 610.605469,431.379761 
z"/>
<path fill="#2C506A" opacity="1.000000" stroke="none" 
	d="
M440.055786,449.641663 
	C437.813293,449.642700 436.026550,449.642700 433.993347,449.642700 
	C433.993347,442.913300 433.993347,436.662384 433.993347,430.035706 
	C437.164520,430.035706 440.152283,429.846954 443.096832,430.121552 
	C444.414520,430.244446 445.645508,431.296722 446.915833,431.927246 
	C445.696899,432.607208 444.537109,433.457947 443.238495,433.908173 
	C442.347778,434.216949 441.125702,433.665619 440.299652,434.042328 
	C439.135162,434.573425 438.200043,435.607452 437.166840,436.426483 
	C437.430634,436.861816 437.694397,437.297180 437.958191,437.732513 
	C440.558960,437.857452 443.159698,437.982422 445.731354,438.105957 
	C446.922180,442.452637 443.881531,441.628876 441.781738,441.606720 
	C438.970734,441.577026 436.687042,441.772583 438.207581,445.889679 
	C440.990814,445.889679 443.770386,445.889679 446.535889,445.889679 
	C446.638153,449.637939 446.638153,449.637939 440.055786,449.641663 
z"/>
<path fill="#1E4662" opacity="1.000000" stroke="none" 
	d="
M668.270874,449.122284 
	C667.990540,448.826233 668.036011,448.338348 668.031494,448.214691 
	C670.237061,442.954010 672.382080,437.787170 674.711243,432.704742 
	C675.185181,431.670502 676.311340,430.331024 677.212341,430.271362 
	C678.064697,430.214905 679.409607,431.477478 679.858582,432.467834 
	C682.294373,437.840332 684.519470,443.308319 687.425598,450.182739 
	C684.946777,449.200989 683.103699,449.030762 682.218079,448.020844 
	C678.847839,444.177917 675.252563,444.098816 672.151123,447.876617 
	C671.415955,448.772125 669.775269,448.924255 668.270874,449.122284 
z"/>
<path fill="#254C67" opacity="1.000000" stroke="none" 
	d="
M552.151001,445.933838 
	C554.587402,445.942352 556.575806,445.942352 558.546692,445.942352 
	C559.090393,450.085571 557.322876,450.544434 546.228699,449.163269 
	C546.228699,443.000305 546.228699,436.797455 546.228699,430.317444 
	C550.420044,430.317444 554.477417,430.317444 558.530518,430.317444 
	C558.734009,433.887482 558.731567,433.821289 554.611938,433.972900 
	C552.430176,434.053253 549.041199,432.805115 550.258911,437.810730 
	C552.688110,437.810730 555.257507,437.810730 558.303650,437.810730 
	C557.825562,444.342163 552.720215,440.056091 549.875244,442.837433 
	C550.296997,443.549988 551.000000,444.737640 552.151001,445.933838 
z"/>
<path fill="#254C67" opacity="1.000000" stroke="none" 
	d="
M648.943604,440.677368 
	C648.053467,447.525177 645.821167,450.120880 641.097412,450.019928 
	C637.383667,449.940552 634.508911,448.224030 633.984802,444.432434 
	C633.421875,440.360718 633.405884,436.183990 633.555481,432.067810 
	C633.585876,431.231903 635.418518,430.461578 637.251831,428.996643 
	C637.251831,434.183258 636.824097,437.895782 637.434631,441.428925 
	C637.734375,443.163452 639.959595,444.565216 641.313477,446.117615 
	C642.524475,444.464203 644.483765,442.935577 644.784729,441.130402 
	C645.346924,437.758514 644.946350,434.226074 646.119873,429.758057 
	C647.062622,430.760925 648.624817,431.656860 648.820312,432.788788 
	C649.237244,435.203308 648.945618,437.740173 648.943604,440.677368 
z"/>
<path fill="#254C67" opacity="1.000000" stroke="none" 
	d="
M478.069519,430.994690 
	C478.210510,434.881561 477.837830,438.434845 478.435150,441.816864 
	C478.717224,443.413818 480.858612,444.682373 482.157532,446.099731 
	C483.416016,444.646576 485.512207,443.323242 485.761688,441.713654 
	C486.312408,438.160583 485.932922,434.463318 485.932922,429.019836 
	C487.884338,430.548828 489.758484,431.316376 489.797211,432.167389 
	C489.976868,436.116608 489.979034,440.137268 489.410858,444.040039 
	C488.796783,448.257782 485.784668,450.271149 481.571167,449.995270 
	C477.603699,449.735504 475.052826,447.552216 474.725464,443.475098 
	C474.434418,439.850616 474.453339,436.198273 474.415680,432.557404 
	C474.387543,429.841492 475.804962,429.504059 478.069519,430.994690 
z"/>
<path fill="#234963" opacity="1.000000" stroke="none" 
	d="
M512.598755,430.345398 
	C513.060669,434.204620 512.756653,437.925415 513.464050,441.442810 
	C513.815979,443.192719 516.022217,444.569702 517.389587,446.115387 
	C518.576660,444.466339 520.500122,442.937195 520.792236,441.142487 
	C521.342102,437.764923 520.950867,434.234161 520.950867,430.767090 
	C521.352539,430.439423 521.754150,430.111725 522.155823,429.784027 
	C523.083252,430.782440 524.696594,431.709167 524.809753,432.792633 
	C525.152466,436.072754 525.129822,439.432159 524.847961,442.726288 
	C524.477600,447.054443 522.104492,449.863983 517.546753,449.984314 
	C513.108276,450.101532 510.254303,447.840363 509.802277,443.330963 
	C509.439941,439.716217 509.349609,436.047729 509.540710,432.424286 
	C509.583557,431.611816 511.302826,430.887756 512.598755,430.345398 
z"/>
<path fill="#1E4662" opacity="1.000000" stroke="none" 
	d="
M262.862366,448.379211 
	C257.764099,443.257843 257.255310,436.877075 261.338959,432.706665 
	C265.211914,428.751495 271.144989,428.908875 276.410858,434.125580 
	C274.089874,434.300323 272.473236,434.886993 271.259979,434.421814 
	C268.229279,433.259766 265.203003,433.189362 263.977509,436.239227 
	C263.067413,438.504242 262.940308,442.226318 264.251434,443.896729 
	C265.395844,445.354645 269.029572,444.920044 271.577332,445.190704 
	C272.975739,445.339294 274.402924,445.217285 276.683929,445.217285 
	C272.031830,450.567596 269.217651,451.098999 262.862366,448.379211 
z"/>
<path fill="#254C67" opacity="1.000000" stroke="none" 
	d="
M719.400024,444.118591 
	C717.238708,439.309174 715.079712,434.917603 712.867737,430.418274 
	C718.760437,428.239563 718.381287,435.048981 721.448975,436.719177 
	C724.460510,434.872498 724.111511,428.545685 730.441895,430.604065 
	C728.891052,433.026489 727.213867,435.100555 726.149048,437.451935 
	C724.900024,440.210236 724.229065,443.225708 723.214661,446.096863 
	C722.788757,447.302521 722.125061,448.424225 721.569519,449.584106 
	C720.848389,448.400787 720.072388,447.245880 719.437927,446.017792 
	C719.234070,445.623230 719.403687,445.035645 719.400024,444.118591 
z"/>
<path fill="#234963" opacity="1.000000" stroke="none" 
	d="
M471.425568,432.805786 
	C469.566956,433.447906 467.835480,433.786682 466.088257,433.921051 
	C463.168488,434.145569 463.164246,434.090546 463.465363,437.970123 
	C465.711395,437.970123 467.985535,437.970123 470.200104,437.970123 
	C470.938782,441.579285 470.938782,441.579285 463.609436,442.235138 
	C461.331818,444.047455 465.558594,449.672180 459.189758,449.546753 
	C459.189758,442.945282 459.189758,436.744965 459.189758,430.055206 
	C462.514923,430.055206 465.634949,429.865051 468.707550,430.163361 
	C469.716797,430.261353 470.603088,431.625458 471.425568,432.805786 
z"/>
<path fill="#2C506A" opacity="1.000000" stroke="none" 
	d="
M497.749817,446.362671 
	C497.749939,442.137695 497.749939,438.341553 497.749939,434.347992 
	C495.940643,434.129578 494.331268,433.935303 491.200745,433.557373 
	C492.426331,432.034698 493.087006,430.350342 494.051849,430.152985 
	C501.183411,428.694397 506.720917,430.180939 506.980408,433.647430 
	C505.437164,433.830383 503.866852,434.016510 501.624329,434.282349 
	C501.624329,438.461151 501.743896,442.711914 501.530518,446.945892 
	C501.484009,447.869354 500.247772,448.732849 499.559509,449.623993 
	C498.956238,448.679810 498.352966,447.735657 497.749817,446.362671 
z"/>
<path fill="#2C506A" opacity="1.000000" stroke="none" 
	d="
M401.359344,442.840088 
	C401.359161,439.741180 401.359161,437.110748 401.359161,434.788788 
	C399.405548,433.084961 394.251099,435.682678 396.220032,430.329742 
	C409.301544,429.207092 410.473175,429.454620 410.838013,433.601746 
	C409.086731,433.833801 407.324585,434.067291 405.298126,434.335815 
	C405.298126,439.270142 405.298126,444.059143 405.298126,448.793884 
	C401.371124,449.485687 401.371124,449.485687 401.359344,442.840088 
z"/>
<path fill="#2C506A" opacity="1.000000" stroke="none" 
	d="
M625.634155,442.834290 
	C625.002319,445.405792 624.370667,447.510895 623.739014,449.615997 
	C623.074829,447.579315 622.063843,445.581573 621.829895,443.496613 
	C621.500244,440.559418 621.746399,437.557587 621.746399,434.377472 
	C619.852844,434.119843 618.102844,433.881775 616.384155,433.647949 
	C616.285889,429.820251 616.285461,429.848358 627.373108,430.011383 
	C629.884094,430.048309 632.300232,429.907837 630.728455,433.783875 
	C629.277222,433.893341 627.820557,434.003235 625.634460,434.168152 
	C625.634460,436.882599 625.634460,439.625244 625.634155,442.834290 
z"/>
<path fill="#2C506A" opacity="1.000000" stroke="none" 
	d="
M327.355164,430.901367 
	C327.518219,435.927094 327.518219,440.557343 327.518219,445.748291 
	C330.357727,445.748291 332.903778,445.748291 335.439209,445.748291 
	C335.447388,450.179352 334.888000,450.332306 323.763855,449.292572 
	C323.763855,443.611176 323.665741,437.855042 323.913727,432.113861 
	C323.938904,431.531738 326.049316,431.039734 327.355164,430.901367 
z"/>
<path fill="#2C506A" opacity="1.000000" stroke="none" 
	d="
M705.518066,449.613647 
	C704.508728,448.584076 703.484741,447.589081 703.442139,446.553802 
	C703.258667,442.090240 703.198364,437.604767 703.471680,433.150482 
	C703.545288,431.951324 704.950684,430.833893 705.744751,429.678925 
	C706.211853,429.946625 706.678955,430.214294 707.146057,430.481995 
	C707.146057,435.418579 707.146057,440.355194 707.146057,445.789490 
	C709.954407,445.789490 712.500671,445.789490 715.046936,445.789490 
	C715.343018,446.290100 715.639099,446.790680 715.935181,447.291290 
	C714.926819,448.072510 713.996582,449.358856 712.893799,449.529297 
	C710.629822,449.879272 708.273438,449.631470 705.518066,449.613647 
z"/>
<path fill="#254C67" opacity="1.000000" stroke="none" 
	d="
M689.019287,431.460236 
	C691.746216,428.982422 692.919373,429.934967 692.941833,432.993774 
	C692.972229,437.128967 692.949402,441.264526 692.949402,445.729401 
	C695.713867,445.857880 698.141174,445.970673 700.556458,446.082916 
	C700.613098,450.086365 699.497559,450.386597 688.962402,449.136688 
	C688.962402,443.449799 688.962402,437.682800 689.019287,431.460236 
z"/>
<path fill="#1E4662" opacity="1.000000" stroke="none" 
	d="
M337.960327,446.535400 
	C337.960022,440.950012 337.960022,435.817841 337.960022,430.454376 
	C340.485016,429.613037 342.120819,429.604889 342.066528,432.932739 
	C341.980133,438.230682 342.043488,443.531067 340.980621,449.881775 
	C339.973938,448.917389 338.967285,447.953003 337.960327,446.535400 
z"/>
<path fill="#DDF9EA" opacity="1.000000" stroke="none" 
	d="
M765.453979,386.031433 
	C766.357300,381.382019 767.666321,376.740143 769.071045,371.800507 
	C770.147705,371.124359 771.128601,370.745941 772.456665,370.184570 
	C771.460938,376.635651 770.118225,383.269653 768.533447,390.228180 
	C767.480835,389.048126 766.670288,387.543549 765.453979,386.031433 
z"/>
<path fill="#DDF9EA" opacity="1.000000" stroke="none" 
	d="
M730.068176,396.397278 
	C737.735291,399.131561 745.476746,399.266052 753.615112,396.056244 
	C752.423157,397.265839 750.931763,399.389923 749.239563,399.564209 
	C742.710022,400.236755 735.976624,401.186127 730.068176,396.397278 
z"/>
<path fill="#1E4662" opacity="1.000000" stroke="none" 
	d="
M566.457947,448.582642 
	C565.287048,450.439941 564.292908,451.946716 563.298828,453.453522 
	C562.788818,453.151978 562.278809,452.850433 561.768738,452.548859 
	C562.200928,450.680359 562.418274,448.719116 563.166077,446.986847 
	C563.485413,446.247223 564.911438,445.985382 565.834595,445.506409 
	C566.101318,446.414978 566.368042,447.323517 566.457947,448.582642 
z"/>
<path fill="#DDF9EA" opacity="1.000000" stroke="none" 
	d="
M725.057678,363.903748 
	C725.483826,362.408569 726.284973,361.003113 727.235596,359.275055 
	C729.342163,358.976135 731.299194,358.999817 733.680664,359.057678 
	C731.980225,361.369995 729.855408,363.648132 727.440063,366.096558 
	C726.577271,365.509094 726.004944,364.751312 725.057678,363.903748 
z"/>
<path fill="#DDF9EA" opacity="1.000000" stroke="none" 
	d="
M759.899780,355.705933 
	C755.279236,355.707275 750.600037,355.325745 745.463501,354.884399 
	C750.071289,351.417450 754.965637,353.088989 759.899780,355.705933 
z"/>
<path fill="#DDF9EA" opacity="1.000000" stroke="none" 
	d="
M775.531677,358.044037 
	C775.087463,361.132263 774.298157,364.289337 773.265991,367.727203 
	C770.476990,363.995239 773.578125,361.217255 775.531677,358.044037 
z"/>
<path fill="#DDF9EA" opacity="1.000000" stroke="none" 
	d="
M725.714722,368.083069 
	C725.204041,370.519257 724.338684,372.999969 723.237427,375.740479 
	C723.787720,373.376038 724.573975,370.751862 725.714722,368.083069 
z"/>
<path fill="#DDF9EA" opacity="1.000000" stroke="none" 
	d="
M759.327759,392.959534 
	C760.372986,391.313110 761.825562,389.689545 763.567200,387.906311 
	C764.311157,390.931213 763.698364,393.275391 759.327759,392.959534 
z"/>
<path fill="#DDF9EA" opacity="1.000000" stroke="none" 
	d="
M742.780884,354.749817 
	C741.560913,355.647095 740.117310,356.278900 738.328125,356.904510 
	C738.480347,354.147217 740.098572,353.519318 742.780884,354.749817 
z"/>
<path fill="#DDF9EA" opacity="1.000000" stroke="none" 
	d="
M769.235474,367.802307 
	C768.374756,366.559265 767.772705,365.108093 767.174988,363.313660 
	C767.950928,364.511658 768.722534,366.052917 769.235474,367.802307 
z"/>
<path fill="#DDF9EA" opacity="1.000000" stroke="none" 
	d="
M722.852905,387.146332 
	C723.699829,388.097839 724.292053,389.230133 724.901245,390.688721 
	C724.144775,389.785736 723.371460,388.556427 722.852905,387.146332 
z"/>
<path fill="#DDF9EA" opacity="1.000000" stroke="none" 
	d="
M766.013428,360.617798 
	C765.108398,360.165649 764.205750,359.346222 763.176758,358.246704 
	C764.038818,358.727966 765.027344,359.489258 766.013428,360.617798 
z"/>
<path fill="#DDF9EA" opacity="1.000000" stroke="none" 
	d="
M754.970825,395.836548 
	C755.446045,395.154968 756.317749,394.530457 757.507568,393.846985 
	C757.006226,394.489838 756.186768,395.191742 754.970825,395.836548 
z"/>
<path fill="#DDF9EA" opacity="1.000000" stroke="none" 
	d="
M736.885254,357.093201 
	C736.415161,357.765625 735.566650,358.393768 734.399719,359.067383 
	C734.889832,358.424866 735.698303,357.736908 736.885254,357.093201 
z"/>
<path fill="#DDF9EA" opacity="1.000000" stroke="none" 
	d="
M722.488586,383.186737 
	C722.763489,383.456268 722.861572,383.894012 722.891113,384.664673 
	C722.652344,384.450012 722.482056,383.902466 722.488586,383.186737 
z"/>
<path fill="#DDF9EA" opacity="1.000000" stroke="none" 
	d="
M722.627075,378.148315 
	C722.846863,378.448608 722.873291,378.896790 722.777222,379.662109 
	C722.581055,379.418243 722.507324,378.857208 722.627075,378.148315 
z"/>
<path fill="#DDF9EA" opacity="1.000000" stroke="none" 
	d="
M766.859009,361.956879 
	C766.629944,361.995819 766.360107,361.765381 766.052856,361.263519 
	C766.283081,361.223877 766.550720,361.455688 766.859009,361.956879 
z"/>
<path fill="#DDF9EA" opacity="1.000000" stroke="none" 
	d="
M758.064697,393.799072 
	C758.007568,393.566650 758.218628,393.295593 758.690918,392.968933 
	C758.745667,393.195679 758.539246,393.478058 758.064697,393.799072 
z"/>
<path fill="#DDF9EA" opacity="1.000000" stroke="none" 
	d="
M762.892456,357.718964 
	C762.701294,357.820312 762.379456,357.691528 761.935791,357.324097 
	C762.129883,357.219910 762.445862,357.354340 762.892456,357.718964 
z"/>
<path fill="#DDF9EA" opacity="1.000000" stroke="none" 
	d="
M728.214966,395.042480 
	C728.453613,394.925049 728.800293,395.102814 729.295959,395.537109 
	C729.070984,395.641632 728.697021,395.489655 728.214966,395.042480 
z"/>
<path fill="#EEF9FD" opacity="1.000000" stroke="none" 
	d="
M628.256653,347.517059 
	C619.701965,353.496399 611.290588,359.162689 602.879211,364.828979 
	C602.359070,364.473267 601.838867,364.117523 601.318726,363.761810 
	C601.455994,361.430969 601.118164,358.945435 601.817505,356.797607 
	C604.136597,349.675781 614.904663,341.703278 622.376648,341.457855 
	C626.087891,341.335999 628.107544,343.488403 628.256653,347.517059 
z"/>
<path fill="#F6FDF9" opacity="1.000000" stroke="none" 
	d="
M757.930786,367.431213 
	C760.545837,374.235168 758.722168,379.907440 754.365173,384.708344 
	C750.306458,389.180695 744.900452,391.259216 739.086792,389.163116 
	C736.572021,388.256409 733.830383,385.576477 732.928833,383.075806 
	C730.753662,377.042511 734.899536,368.751862 740.889587,365.353302 
	C746.860352,361.965637 752.990356,362.597076 757.930786,367.431213 
z"/>
<path fill="#EEF9FD" opacity="1.000000" stroke="none" 
	d="
M316.084900,440.799255 
	C315.121185,445.495636 312.018646,447.378693 308.433228,445.686066 
	C306.414734,444.733093 304.652679,441.240601 304.513763,438.793427 
	C304.328094,435.523254 307.122925,433.468170 310.555054,433.670563 
	C314.567871,433.907135 316.297089,436.461731 316.084900,440.799255 
z"/>
<path fill="#EEF9FD" opacity="1.000000" stroke="none" 
	d="
M293.865295,439.205750 
	C292.812317,444.884735 290.511658,446.948364 286.502350,446.024780 
	C282.446655,445.090485 281.095947,441.978455 282.207306,438.518799 
	C282.822266,436.604462 285.112762,434.459106 287.067047,433.910400 
	C290.717896,432.885315 292.810211,435.442078 293.865295,439.205750 
z"/>
</svg>